<mxfile host="app.diagrams.net" modified="2022-01-15T06:12:21.067Z" agent="5.0 (Windows NT 10.0; Win64; x64) AppleWebKit/537.36 (KHTML, like Gecko) Chrome/97.0.4692.71 Safari/537.36" etag="p3KMlBB8S4f6feUB_e3l" version="14.9.0" type="github">
  <diagram id="rRJaQfYNc4BB-SULlFyf" name="第 1 页">
    <mxGraphModel dx="1209" dy="557" grid="1" gridSize="10" guides="1" tooltips="1" connect="1" arrows="1" fold="1" page="1" pageScale="1" pageWidth="827" pageHeight="1169" math="0" shadow="0">
      <root>
        <mxCell id="0" />
        <mxCell id="1" parent="0" />
        <mxCell id="gaYbq6778NUG3M6AhZ5M-2" style="edgeStyle=orthogonalEdgeStyle;rounded=0;orthogonalLoop=1;jettySize=auto;html=1;exitX=0.5;exitY=1;exitDx=0;exitDy=0;" edge="1" parent="1" source="gaYbq6778NUG3M6AhZ5M-1">
          <mxGeometry relative="1" as="geometry">
            <mxPoint x="180" y="190" as="targetPoint" />
            <Array as="points">
              <mxPoint x="390" y="165" />
              <mxPoint x="180" y="165" />
            </Array>
          </mxGeometry>
        </mxCell>
        <mxCell id="gaYbq6778NUG3M6AhZ5M-3" style="edgeStyle=orthogonalEdgeStyle;rounded=0;orthogonalLoop=1;jettySize=auto;html=1;exitX=0.5;exitY=1;exitDx=0;exitDy=0;" edge="1" parent="1" source="gaYbq6778NUG3M6AhZ5M-1">
          <mxGeometry relative="1" as="geometry">
            <mxPoint x="300" y="190" as="targetPoint" />
          </mxGeometry>
        </mxCell>
        <mxCell id="gaYbq6778NUG3M6AhZ5M-4" style="edgeStyle=orthogonalEdgeStyle;rounded=0;orthogonalLoop=1;jettySize=auto;html=1;exitX=0.5;exitY=1;exitDx=0;exitDy=0;" edge="1" parent="1" source="gaYbq6778NUG3M6AhZ5M-1">
          <mxGeometry relative="1" as="geometry">
            <mxPoint x="470" y="190" as="targetPoint" />
          </mxGeometry>
        </mxCell>
        <mxCell id="gaYbq6778NUG3M6AhZ5M-5" style="edgeStyle=orthogonalEdgeStyle;rounded=0;orthogonalLoop=1;jettySize=auto;html=1;exitX=0.5;exitY=1;exitDx=0;exitDy=0;" edge="1" parent="1" source="gaYbq6778NUG3M6AhZ5M-1">
          <mxGeometry relative="1" as="geometry">
            <mxPoint x="600" y="190" as="targetPoint" />
          </mxGeometry>
        </mxCell>
        <mxCell id="gaYbq6778NUG3M6AhZ5M-1" value="&lt;font style=&quot;font-size: 20px&quot;&gt;工艺参数&lt;/font&gt;" style="rounded=1;whiteSpace=wrap;html=1;" vertex="1" parent="1">
          <mxGeometry x="330" y="80" width="120" height="60" as="geometry" />
        </mxCell>
        <mxCell id="gaYbq6778NUG3M6AhZ5M-12" style="edgeStyle=orthogonalEdgeStyle;rounded=0;orthogonalLoop=1;jettySize=auto;html=1;exitX=0;exitY=0.5;exitDx=0;exitDy=0;entryX=0;entryY=0.5;entryDx=0;entryDy=0;" edge="1" parent="1" source="gaYbq6778NUG3M6AhZ5M-6" target="gaYbq6778NUG3M6AhZ5M-11">
          <mxGeometry relative="1" as="geometry" />
        </mxCell>
        <mxCell id="gaYbq6778NUG3M6AhZ5M-16" style="edgeStyle=orthogonalEdgeStyle;rounded=0;orthogonalLoop=1;jettySize=auto;html=1;exitX=0;exitY=0.5;exitDx=0;exitDy=0;entryX=0;entryY=0.5;entryDx=0;entryDy=0;" edge="1" parent="1" source="gaYbq6778NUG3M6AhZ5M-6" target="gaYbq6778NUG3M6AhZ5M-13">
          <mxGeometry relative="1" as="geometry" />
        </mxCell>
        <mxCell id="gaYbq6778NUG3M6AhZ5M-17" style="edgeStyle=orthogonalEdgeStyle;rounded=0;orthogonalLoop=1;jettySize=auto;html=1;exitX=0;exitY=0.5;exitDx=0;exitDy=0;entryX=0;entryY=0.5;entryDx=0;entryDy=0;" edge="1" parent="1" source="gaYbq6778NUG3M6AhZ5M-6" target="gaYbq6778NUG3M6AhZ5M-14">
          <mxGeometry relative="1" as="geometry" />
        </mxCell>
        <mxCell id="gaYbq6778NUG3M6AhZ5M-18" style="edgeStyle=orthogonalEdgeStyle;rounded=0;orthogonalLoop=1;jettySize=auto;html=1;exitX=0;exitY=0.5;exitDx=0;exitDy=0;entryX=0;entryY=0.5;entryDx=0;entryDy=0;" edge="1" parent="1" source="gaYbq6778NUG3M6AhZ5M-6" target="gaYbq6778NUG3M6AhZ5M-15">
          <mxGeometry relative="1" as="geometry" />
        </mxCell>
        <mxCell id="gaYbq6778NUG3M6AhZ5M-6" value="&lt;font style=&quot;font-size: 20px&quot;&gt;激光相关&lt;/font&gt;" style="rounded=1;whiteSpace=wrap;html=1;" vertex="1" parent="1">
          <mxGeometry x="110" y="190" width="120" height="60" as="geometry" />
        </mxCell>
        <mxCell id="gaYbq6778NUG3M6AhZ5M-23" style="edgeStyle=orthogonalEdgeStyle;rounded=0;orthogonalLoop=1;jettySize=auto;html=1;exitX=0;exitY=0.5;exitDx=0;exitDy=0;entryX=0;entryY=0.5;entryDx=0;entryDy=0;" edge="1" parent="1" source="gaYbq6778NUG3M6AhZ5M-7" target="gaYbq6778NUG3M6AhZ5M-19">
          <mxGeometry relative="1" as="geometry" />
        </mxCell>
        <mxCell id="gaYbq6778NUG3M6AhZ5M-24" style="edgeStyle=orthogonalEdgeStyle;rounded=0;orthogonalLoop=1;jettySize=auto;html=1;exitX=0;exitY=0.5;exitDx=0;exitDy=0;entryX=0;entryY=0.5;entryDx=0;entryDy=0;" edge="1" parent="1" source="gaYbq6778NUG3M6AhZ5M-7" target="gaYbq6778NUG3M6AhZ5M-20">
          <mxGeometry relative="1" as="geometry" />
        </mxCell>
        <mxCell id="gaYbq6778NUG3M6AhZ5M-25" style="edgeStyle=orthogonalEdgeStyle;rounded=0;orthogonalLoop=1;jettySize=auto;html=1;exitX=0;exitY=0.5;exitDx=0;exitDy=0;entryX=0;entryY=0.5;entryDx=0;entryDy=0;" edge="1" parent="1" source="gaYbq6778NUG3M6AhZ5M-7" target="gaYbq6778NUG3M6AhZ5M-21">
          <mxGeometry relative="1" as="geometry" />
        </mxCell>
        <mxCell id="gaYbq6778NUG3M6AhZ5M-7" value="&lt;font style=&quot;font-size: 20px&quot;&gt;扫描相关&lt;/font&gt;" style="rounded=1;whiteSpace=wrap;html=1;" vertex="1" parent="1">
          <mxGeometry x="260" y="190" width="120" height="60" as="geometry" />
        </mxCell>
        <mxCell id="gaYbq6778NUG3M6AhZ5M-34" style="edgeStyle=orthogonalEdgeStyle;rounded=0;orthogonalLoop=1;jettySize=auto;html=1;exitX=0;exitY=0.5;exitDx=0;exitDy=0;entryX=0;entryY=0.5;entryDx=0;entryDy=0;" edge="1" parent="1" source="gaYbq6778NUG3M6AhZ5M-8" target="gaYbq6778NUG3M6AhZ5M-26">
          <mxGeometry relative="1" as="geometry" />
        </mxCell>
        <mxCell id="gaYbq6778NUG3M6AhZ5M-36" style="edgeStyle=orthogonalEdgeStyle;rounded=0;orthogonalLoop=1;jettySize=auto;html=1;exitX=0;exitY=0.5;exitDx=0;exitDy=0;entryX=0;entryY=0.5;entryDx=0;entryDy=0;" edge="1" parent="1" source="gaYbq6778NUG3M6AhZ5M-8" target="gaYbq6778NUG3M6AhZ5M-27">
          <mxGeometry relative="1" as="geometry" />
        </mxCell>
        <mxCell id="gaYbq6778NUG3M6AhZ5M-37" style="edgeStyle=orthogonalEdgeStyle;rounded=0;orthogonalLoop=1;jettySize=auto;html=1;exitX=0;exitY=0.5;exitDx=0;exitDy=0;entryX=0;entryY=0.5;entryDx=0;entryDy=0;" edge="1" parent="1" source="gaYbq6778NUG3M6AhZ5M-8" target="gaYbq6778NUG3M6AhZ5M-28">
          <mxGeometry relative="1" as="geometry" />
        </mxCell>
        <mxCell id="gaYbq6778NUG3M6AhZ5M-38" style="edgeStyle=orthogonalEdgeStyle;rounded=0;orthogonalLoop=1;jettySize=auto;html=1;exitX=0;exitY=0.5;exitDx=0;exitDy=0;entryX=0;entryY=0.5;entryDx=0;entryDy=0;" edge="1" parent="1" source="gaYbq6778NUG3M6AhZ5M-8" target="gaYbq6778NUG3M6AhZ5M-29">
          <mxGeometry relative="1" as="geometry" />
        </mxCell>
        <mxCell id="gaYbq6778NUG3M6AhZ5M-39" style="edgeStyle=orthogonalEdgeStyle;rounded=0;orthogonalLoop=1;jettySize=auto;html=1;exitX=0;exitY=0.5;exitDx=0;exitDy=0;entryX=0;entryY=0.5;entryDx=0;entryDy=0;" edge="1" parent="1" source="gaYbq6778NUG3M6AhZ5M-8" target="gaYbq6778NUG3M6AhZ5M-30">
          <mxGeometry relative="1" as="geometry" />
        </mxCell>
        <mxCell id="gaYbq6778NUG3M6AhZ5M-8" value="&lt;font style=&quot;font-size: 20px&quot;&gt;粉末相关&lt;/font&gt;" style="rounded=1;whiteSpace=wrap;html=1;" vertex="1" parent="1">
          <mxGeometry x="413.5" y="190" width="120" height="60" as="geometry" />
        </mxCell>
        <mxCell id="gaYbq6778NUG3M6AhZ5M-40" style="edgeStyle=orthogonalEdgeStyle;rounded=0;orthogonalLoop=1;jettySize=auto;html=1;exitX=0;exitY=0.5;exitDx=0;exitDy=0;entryX=0;entryY=0.5;entryDx=0;entryDy=0;" edge="1" parent="1" source="gaYbq6778NUG3M6AhZ5M-9" target="gaYbq6778NUG3M6AhZ5M-31">
          <mxGeometry relative="1" as="geometry" />
        </mxCell>
        <mxCell id="gaYbq6778NUG3M6AhZ5M-41" style="edgeStyle=orthogonalEdgeStyle;rounded=0;orthogonalLoop=1;jettySize=auto;html=1;exitX=0;exitY=0.5;exitDx=0;exitDy=0;entryX=0;entryY=0.5;entryDx=0;entryDy=0;" edge="1" parent="1" source="gaYbq6778NUG3M6AhZ5M-9" target="gaYbq6778NUG3M6AhZ5M-32">
          <mxGeometry relative="1" as="geometry" />
        </mxCell>
        <mxCell id="gaYbq6778NUG3M6AhZ5M-42" style="edgeStyle=orthogonalEdgeStyle;rounded=0;orthogonalLoop=1;jettySize=auto;html=1;exitX=0;exitY=0.5;exitDx=0;exitDy=0;entryX=0;entryY=0.5;entryDx=0;entryDy=0;" edge="1" parent="1" source="gaYbq6778NUG3M6AhZ5M-9" target="gaYbq6778NUG3M6AhZ5M-33">
          <mxGeometry relative="1" as="geometry" />
        </mxCell>
        <mxCell id="gaYbq6778NUG3M6AhZ5M-9" value="&lt;font style=&quot;font-size: 20px&quot;&gt;温度相关&lt;/font&gt;" style="rounded=1;whiteSpace=wrap;html=1;" vertex="1" parent="1">
          <mxGeometry x="566" y="190" width="120" height="60" as="geometry" />
        </mxCell>
        <mxCell id="gaYbq6778NUG3M6AhZ5M-11" value="&lt;font style=&quot;font-size: 20px&quot;&gt;激光功率&lt;/font&gt;" style="rounded=1;whiteSpace=wrap;html=1;" vertex="1" parent="1">
          <mxGeometry x="130" y="310" width="100" height="50" as="geometry" />
        </mxCell>
        <mxCell id="gaYbq6778NUG3M6AhZ5M-13" value="&lt;font style=&quot;font-size: 20px&quot;&gt;点尺寸&lt;/font&gt;" style="rounded=1;whiteSpace=wrap;html=1;" vertex="1" parent="1">
          <mxGeometry x="130" y="400" width="100" height="50" as="geometry" />
        </mxCell>
        <mxCell id="gaYbq6778NUG3M6AhZ5M-14" value="&lt;font style=&quot;font-size: 20px&quot;&gt;脉冲时间&lt;/font&gt;" style="rounded=1;whiteSpace=wrap;html=1;" vertex="1" parent="1">
          <mxGeometry x="130" y="490" width="100" height="50" as="geometry" />
        </mxCell>
        <mxCell id="gaYbq6778NUG3M6AhZ5M-15" value="&lt;font style=&quot;font-size: 20px&quot;&gt;脉冲频率&lt;/font&gt;" style="rounded=1;whiteSpace=wrap;html=1;" vertex="1" parent="1">
          <mxGeometry x="130" y="580" width="100" height="50" as="geometry" />
        </mxCell>
        <mxCell id="gaYbq6778NUG3M6AhZ5M-19" value="&lt;font style=&quot;font-size: 20px&quot;&gt;扫描速度&lt;/font&gt;" style="rounded=1;whiteSpace=wrap;html=1;" vertex="1" parent="1">
          <mxGeometry x="280" y="310" width="100" height="50" as="geometry" />
        </mxCell>
        <mxCell id="gaYbq6778NUG3M6AhZ5M-20" value="&lt;font style=&quot;font-size: 20px&quot;&gt;扫描间距&lt;/font&gt;" style="rounded=1;whiteSpace=wrap;html=1;" vertex="1" parent="1">
          <mxGeometry x="280" y="400" width="100" height="50" as="geometry" />
        </mxCell>
        <mxCell id="gaYbq6778NUG3M6AhZ5M-21" value="&lt;font style=&quot;font-size: 20px&quot;&gt;扫描策略&lt;/font&gt;" style="rounded=1;whiteSpace=wrap;html=1;" vertex="1" parent="1">
          <mxGeometry x="280" y="490" width="100" height="50" as="geometry" />
        </mxCell>
        <mxCell id="gaYbq6778NUG3M6AhZ5M-26" value="&lt;font style=&quot;font-size: 20px&quot;&gt;颗粒尺寸&lt;/font&gt;" style="rounded=1;whiteSpace=wrap;html=1;" vertex="1" parent="1">
          <mxGeometry x="433.5" y="310" width="100" height="50" as="geometry" />
        </mxCell>
        <mxCell id="gaYbq6778NUG3M6AhZ5M-27" value="&lt;font style=&quot;font-size: 20px&quot;&gt;形状及分布&lt;/font&gt;" style="rounded=1;whiteSpace=wrap;html=1;" vertex="1" parent="1">
          <mxGeometry x="433.5" y="400" width="100" height="50" as="geometry" />
        </mxCell>
        <mxCell id="gaYbq6778NUG3M6AhZ5M-28" value="&lt;span style=&quot;font-size: 20px&quot;&gt;致密度&lt;/span&gt;" style="rounded=1;whiteSpace=wrap;html=1;" vertex="1" parent="1">
          <mxGeometry x="433.5" y="490" width="100" height="50" as="geometry" />
        </mxCell>
        <mxCell id="gaYbq6778NUG3M6AhZ5M-29" value="&lt;font style=&quot;font-size: 20px&quot;&gt;层厚&lt;/font&gt;" style="rounded=1;whiteSpace=wrap;html=1;" vertex="1" parent="1">
          <mxGeometry x="433.5" y="580" width="100" height="50" as="geometry" />
        </mxCell>
        <mxCell id="gaYbq6778NUG3M6AhZ5M-30" value="&lt;font style=&quot;font-size: 20px&quot;&gt;材料特性&lt;/font&gt;" style="rounded=1;whiteSpace=wrap;html=1;" vertex="1" parent="1">
          <mxGeometry x="433.5" y="670" width="100" height="50" as="geometry" />
        </mxCell>
        <mxCell id="gaYbq6778NUG3M6AhZ5M-31" value="&lt;span style=&quot;font-size: 20px&quot;&gt;粉床温度&lt;/span&gt;" style="rounded=1;whiteSpace=wrap;html=1;" vertex="1" parent="1">
          <mxGeometry x="586" y="310" width="100" height="50" as="geometry" />
        </mxCell>
        <mxCell id="gaYbq6778NUG3M6AhZ5M-32" value="&lt;span style=&quot;font-size: 20px&quot;&gt;送粉器温度&lt;/span&gt;" style="rounded=1;whiteSpace=wrap;html=1;" vertex="1" parent="1">
          <mxGeometry x="586" y="400" width="100" height="50" as="geometry" />
        </mxCell>
        <mxCell id="gaYbq6778NUG3M6AhZ5M-33" value="&lt;font style=&quot;font-size: 20px&quot;&gt;温度均匀性&lt;/font&gt;" style="rounded=1;whiteSpace=wrap;html=1;" vertex="1" parent="1">
          <mxGeometry x="586" y="490" width="100" height="50" as="geometry" />
        </mxCell>
      </root>
    </mxGraphModel>
  </diagram>
</mxfile>
